<?xml version="1.0" encoding="utf-8"?>
<svg xmlns="http://www.w3.org/2000/svg" width="1em" height="1em" viewBox="0 0 24 24">
  <path d="M0 0h24v24H0z" fill="none"/>
  <path d="M22 12.698c-.002 1.47-.013 2.718-.096 3.743c-.097 1.19-.296 2.184-.74 3.009a4.2 4.2 0 0 1-.73.983c-.833.833-1.893 1.21-3.237 1.39C15.884 22 14.2 22 12.053 22h-.106c-2.148 0-3.83 0-5.144-.177c-1.343-.18-2.404-.557-3.236-1.39c-.738-.738-1.12-1.656-1.322-2.795c-.2-1.12-.236-2.512-.243-4.241Q1.999 12.737 2 12v-.054c0-2.148 0-3.83.177-5.144c.18-1.343.557-2.404 1.39-3.236s1.893-1.21 3.236-1.39c1.168-.157 2.67-.175 4.499-.177a.697.697 0 1 1 0 1.396c-1.855.002-3.234.018-4.313.163c-1.189.16-1.906.464-2.436.994S3.72 5.8 3.56 6.99C3.397 8.2 3.395 9.788 3.395 12v.784l.932-.814a2.14 2.14 0 0 1 2.922.097l3.99 3.99a1.86 1.86 0 0 0 2.385.207l.278-.195a2.79 2.79 0 0 1 3.471.209l2.633 2.37c.265-.557.423-1.288.507-2.32c.079-.972.09-2.152.091-3.63a.698.698 0 0 1 1.396 0" style=""/>
  <path fill-rule="evenodd" d="M 17.5 11 C 15.379 11 14.318 11 13.659 10.341 C 13 9.682 13 8.621 13 6.5 C 13 4.379 13 3.318 13.659 2.659 C 14.318 2 15.379 2 17.5 2 C 19.621 2 20.682 2 21.341 2.659 C 22 3.318 22 4.379 22 6.5 C 22 8.621 22 9.682 21.341 10.341 C 20.682 11 19.621 11 17.5 11zM 16.972 5.012 C 17.256 5.033 17.53 5.119 17.778 5.262 C 18.025 5.404 18.238 5.599 18.404 5.833 L 17.592 6.409 C 17.51 6.293 17.404 6.196 17.281 6.124 C 17.044 5.986 16.757 5.964 16.502 6.064 C 16.375 6.115 16.258 6.194 16.159 6.298 L 15.288 7.218 C 15.111 7.412 15.009 7.678 15.011 7.958 C 15.014 8.238 15.121 8.502 15.302 8.693 C 15.482 8.884 15.721 8.987 15.964 8.989 C 16.214 8.99 16.454 8.889 16.628 8.709 L 16.781 8.548 C 17.049 8.274 17.513 8.393 17.616 8.762 C 17.663 8.927 17.62 9.105 17.504 9.232 L 17.347 9.397 L 17.341 9.404 C 16.977 9.778 16.477 9.988 15.955 9.985 C 15.433 9.978 14.936 9.759 14.579 9.378 C 14.22 8.995 14.018 8.49 14.015 7.965 C 14.009 7.44 14.202 6.932 14.555 6.543 L 14.561 6.536 L 15.437 5.613 C 15.632 5.405 15.872 5.243 16.137 5.138 C 16.403 5.034 16.688 4.991 16.972 5.012M 19.046 3.015 C 19.567 3.022 20.064 3.241 20.421 3.622 C 20.78 4.005 20.982 4.51 20.985 5.035 C 20.991 5.56 20.798 6.069 20.445 6.458 L 20.439 6.464 L 19.563 7.387 C 19.368 7.595 19.128 7.757 18.863 7.862 C 18.326 8.073 17.722 8.028 17.222 7.739 C 16.975 7.595 16.762 7.4 16.596 7.166 L 17.408 6.591 C 17.493 6.71 17.6 6.807 17.72 6.876 C 17.956 7.014 18.243 7.036 18.498 6.936 C 18.625 6.886 18.742 6.806 18.841 6.702 L 19.713 5.783 C 19.89 5.588 19.992 5.323 19.989 5.043 C 19.988 4.769 19.885 4.506 19.698 4.306 C 19.527 4.122 19.288 4.015 19.036 4.011 C 18.786 4.01 18.546 4.112 18.372 4.292 L 18.216 4.455 C 17.946 4.727 17.483 4.604 17.383 4.234 C 17.338 4.069 17.381 3.894 17.496 3.768 L 17.655 3.602 L 17.66 3.597 C 18.023 3.222 18.524 3.012 19.045 3.015"/>
</svg>